<svg xmlns="http://www.w3.org/2000/svg" version="1.1" xmlns:xlink="http://www.w3.org/1999/xlink" width="1000" height="1000"><g clip-path="url(#SvgjsClipPath1047)"><rect width="1000" height="1000" fill="#ffffff"></rect><g transform="matrix(5.5605755195662745,0,0,5.5605755195662745,105.949815805936,100.00000000000006)"><svg xmlns="http://www.w3.org/2000/svg" version="1.1" xmlns:xlink="http://www.w3.org/1999/xlink" width="141.73" height="143.87"><svg version="1.1" id="Calque_1" xmlns="http://www.w3.org/2000/svg" xmlns:xlink="http://www.w3.org/1999/xlink" x="0px" y="0px" viewBox="0 0 141.73 143.87" style="enable-background:new 0 0 141.73 143.87;" xml:space="preserve">
<style type="text/css">
	.st0{fill:#518C92;}
</style>
<g>
	<path class="st0" d="M17.92,71.69c0-16.71,0-33.42,0.01-50.12c0-1.02-0.03-2.06,0.16-3.05c1.2-6.28,3.87-8.45,10.38-8.46
		c17.73-0.01,35.45-0.15,53.18,0.05c9,0.1,17.75,1.74,25.57,6.65c6.72,4.22,10.6,10.25,12.13,18.05c1.32,6.73,1.34,13.32-0.62,19.9
		c-1.95,6.55-6.53,10.56-12.62,13.13c-0.7,0.3-1.44,0.52-2.15,0.79c-1.54,0.6-2.24,1.78-2.2,3.38c0.03,1.56,0.94,2.48,2.37,2.96
		c4.38,1.47,8.59,3.27,12.02,6.46c6.88,6.37,8.45,14.56,7.42,23.38c-1.59,13.68-9.63,21.97-22.46,26.12
		c-6.54,2.12-13.24,2.95-20.08,2.95c-17.56-0.01-35.11,0.01-52.67-0.02c-4.89-0.01-8.18-2.01-9.57-5.77
		c-0.62-1.67-0.89-3.42-0.88-5.24C17.93,105.79,17.92,88.74,17.92,71.69z M69.39,102.08c3.23-0.01,6.44-0.04,9.64-0.81
		c4.77-1.14,7.09-3.68,7.02-8.26c-0.06-4.47-2.65-7.33-7.25-8.19c-4.82-0.9-9.68-0.72-14.52-0.6c-3.25,0.08-4.98,2.01-5.03,5.22
		c-0.04,2.47-0.04,4.95,0.01,7.42c0.08,3.42,1.79,5.11,5.27,5.2C66.15,102.11,67.77,102.07,69.39,102.08z M59.24,50.48
		c0,1.02,0,2.04,0,3.06c0.02,4.3,1.45,5.78,5.75,6.02c3.84,0.21,7.63-0.14,11.37-0.96c3.82-0.83,6.15-3.77,6.37-7.88
		c0.18-3.33-1.89-6.22-5.2-7.6c-3.06-1.28-6.24-1.44-9.48-1.43C59.79,41.73,59.27,42.23,59.24,50.48z"></path>
</g>
</svg></svg></g></g><defs><clipPath id="SvgjsClipPath1047"><rect width="1000" height="1000" x="0" y="0" rx="150" ry="150"></rect></clipPath></defs></svg>